<svg xmlns="http://www.w3.org/2000/svg" version="1.1" xmlns:xlink="http://www.w3.org/1999/xlink" width="512" height="512"><svg id="SvgjsSvg1074" xmlns="http://www.w3.org/2000/svg" version="1.1" viewBox="0 0 512 512">
  <!-- Generator: Adobe Illustrator 29.6.0, SVG Export Plug-In . SVG Version: 2.1.1 Build 207)  -->
  <defs>
    <style>
      .st0 {
        isolation: isolate;
      }

      .st1 {
        fill: #ff0;
      }

      .st2 {
        stroke: #000;
        stroke-miterlimit: 10;
        stroke-width: .85px;
      }

      .st2, .st3 {
        fill: #0aa7ed;
      }

      .st4 {
        fill: #ffb317;
      }
    </style>
  </defs>
  <g>
    <path class="st3" d="M48.24,284.08C18.41,255.05,2.15,215.95,2.45,173.98c.3-40.72,16.98-79.69,45.78-106.9,27.24-25.74,63.41-39.92,101.84-39.92,41.6,0,80.37,16.32,109.14,45.95l.36.37.36-.38c28.61-30.56,68.96-48.09,110.7-48.09,34.41,0,66.96,11.8,91.66,33.22,29.07,25.22,46.27,63.06,47.17,103.85.94,42.73-16.25,84.06-47.18,113.37l-211.34,211.34L48.24,284.08h0Z"></path>
    <path d="M370.64,25.49c34.29,0,66.73,11.75,91.34,33.1,28.97,25.12,46.09,62.84,46.99,103.49.46,20.7-3.21,40.88-10.91,60-8.09,20.12-20.25,37.96-36.15,53.02l-70.56,70.56-140.41,140.41L48.58,283.71c-15.04-14.63-26.64-31.87-34.5-51.26-7.53-18.59-11.28-38.27-11.14-58.48.14-19.94,4.07-39.25,11.67-57.39,7.86-18.76,19.29-35.3,33.95-49.15,27.15-25.66,63.19-39.78,101.51-39.79,20.05,0,39.58,3.84,58.03,11.43,19.18,7.89,36.25,19.45,50.74,34.36l.74.76.71-.77c14.63-15.63,31.97-27.74,51.56-36.01,18.73-7.91,38.5-11.92,58.78-11.92M370.64,24.49c-39.95,0-80.8,15.9-111.07,48.25-29.91-30.78-69.83-46.1-109.5-46.09-37.1,0-73.98,13.4-102.18,40.06-60.63,57.31-61.86,157.55,0,217.73l203.07,203.07c70.56-70.56,141.13-141.13,211.69-211.69,65.1-61.7,61.22-164.89,0-217.97-25.51-22.12-58.44-33.34-91.99-33.34h-.02Z"></path>
  </g>
  <path class="st2" d="M189.38,292.19"></path>
  <g class="st0">
    <g class="st0">
      <path d="M227.72,223.03c-6.01.2-10.41.3-13.21.3-4.31,0-10.26-.1-17.87-.3-1.6,1.75-3.55,3.82-5.86,6.19-2.3,2.38-4.48,4.58-6.53,6.61-2.05,2.03-3.82,3.75-5.29,5.18-1.48,1.43-2.69,2.62-3.64,3.57-5.56,5.41-9.17,8.93-10.85,10.59-1.68,1.65-3.44,3.14-5.29,4.47-1.85,1.33-3.55,1.99-5.11,1.99-1.75,0-2.63-.8-2.63-2.4,0-1.75,1.25-4.46,3.75-8.11,2.5-3.65,5.33-6.88,8.48-9.68,3.15-2.8,5.73-4.2,7.73-4.2.55,0,1.33.25,2.33.75l14.26-15.24c-1.8-.25-4.15-.41-7.06-.49-2.9-.08-4.86-.29-5.86-.64-1-.35-1.5-1.2-1.5-2.55,0-2.15,2.3-5.53,6.91-10.13,2.5-2.55,4.85-4.18,7.06-4.88,2.2-.7,6.41-1.08,12.61-1.13-3.65.5-6.24,1.09-7.77,1.76-1.53.68-2.36,1.69-2.52,3.04h4.02c1.23,0,2.83-.01,4.8-.04,1.98-.02,3.44-.06,4.39-.11,8.21-8.01,15.67-14.98,22.37-20.91,6.71-5.93,13.78-11.56,21.21-16.89,7.43-5.33,15.35-10.22,23.76-14.68,1.65,2.15,2.48,4.4,2.48,6.76,0,1.95-.64,4.2-1.91,6.76-1.28,2.55-3.98,7.35-8.11,14.38-4.13,7.03-8.32,14.5-12.57,22.41,1.4,0,2.56.01,3.49.04.93.03,1.91.06,2.96.11,2.85,0,4.59.05,5.22.15.63.1.94.6.94,1.5,0,.4-.39,1.11-1.16,2.14-.78,1.03-2.14,2.73-4.09,5.11-1.95,2.38-3.85,4.79-5.71,7.24l-11.04.9c-5.86,11.01-8.78,17.22-8.78,18.62,0,2.05,1.08,3.08,3.23,3.08,1.05,0,5.41-2.2,13.06-6.61l-.6,3.98c-4.1,3.1-7.3,5.54-9.57,7.32-2.28,1.78-4.25,3.25-5.93,4.43-1.68,1.18-3.2,2.05-4.58,2.63-1.38.57-2.77.86-4.17.86-1.65,0-3.28-.76-4.88-2.29-1.6-1.53-2.4-3.69-2.4-6.49,0-1.15.42-2.79,1.28-4.92.85-2.13,1.76-4.17,2.74-6.12s3.44-6.63,7.4-14.04ZM213.53,205.99l24.32-.45c2.85-4.85,5.17-8.78,6.94-11.79,1.78-3,3.73-6.27,5.86-9.8,2.13-3.53,3.95-6.52,5.48-8.97,1.53-2.45,3.22-5.23,5.07-8.33-3.6,2.25-7.28,4.76-11.04,7.51-3.75,2.75-7.98,6.07-12.69,9.95-4.71,3.88-8.88,7.48-12.54,10.81-3.65,3.33-7.46,7.02-11.41,11.07Z"></path>
      <path d="M353.17,230.01v4.88c-8.41,9.36-16.13,17.08-23.16,23.16-7.03,6.08-13.9,10.76-20.61,14.04-6.71,3.28-13.19,4.92-19.44,4.92-5.41,0-10.05-1.08-13.93-3.23-3.88-2.15-6.81-5.29-8.78-9.42-1.98-4.13-2.97-9.02-2.97-14.68,0-4.45.71-9.17,2.14-14.15,1.43-4.98,3.49-10.01,6.19-15.09,2.7-5.08,6.02-10.32,9.95-15.73,3.93-5.41,8.55-11.09,13.85-17.04,5.51-6.16,10.94-11.47,16.29-15.95,5.36-4.48,10.21-8,14.56-10.55s8.4-4.45,12.12-5.71c3.73-1.25,6.82-1.88,9.27-1.88s4.63.6,6.38,1.8c1.75,1.2,3.1,2.95,4.05,5.26.95,2.3,1.43,4.96,1.43,7.96,0,5.66-1.93,11.95-5.78,18.88-3.85,6.93-8.66,13.63-14.41,20.08-5.76,6.46-11.25,11.72-16.48,15.8-5.23,4.08-9,6.12-11.3,6.12-1.55,0-2.99-.61-4.32-1.84-1.33-1.23-1.99-2.61-1.99-4.17,0-2.85,1.51-6.31,4.54-10.36,3.03-4.05,6.33-7.77,9.91-11.15,3.58-3.38,5.72-5.07,6.42-5.07.35,0,.53.15.53.45,0,.45-.26,1.23-.79,2.33-.53,1.1-.79,1.78-.79,2.03,0,.4.15.6.45.6.85,0,3.3-2.28,7.36-6.83,4.05-4.55,7.77-9.57,11.15-15.05s5.07-9.97,5.07-13.48c0-1.45-.31-2.56-.94-3.34-.63-.78-1.56-1.16-2.82-1.16-3.5,0-8.82,2.84-15.95,8.52-7.13,5.68-14.44,12.91-21.92,21.7-7.48,8.78-13.73,17.86-18.73,27.21-5.01,9.36-7.51,17.59-7.51,24.7,0,4.1.61,7.53,1.84,10.29,1.23,2.75,3.03,4.88,5.41,6.38,2.38,1.5,5.24,2.25,8.6,2.25,7.26,0,15.49-2.83,24.7-8.48,9.21-5.66,19.34-13.99,30.41-25Z"></path>
    </g>
  </g>
  <polygon class="st1" points="40.2 31.37 57.69 49.66 80.5 38.7 68.49 60.98 85.98 79.28 61.07 74.75 49.06 97.03 45.68 71.95 20.78 67.41 43.59 56.45 40.2 31.37"></polygon>
  <polygon class="st4" points="382.53 345.33 373.39 368.93 393.02 384.91 367.75 383.52 358.61 407.13 352.13 382.66 326.86 381.26 348.12 367.53 341.63 343.08 361.27 359.06 382.53 345.33"></polygon>
</svg><style>@media (prefers-color-scheme: light) { :root { filter: none; } }
@media (prefers-color-scheme: dark) { :root { filter: none; } }
</style></svg>